<?xml version="1.0" standalone="no"?>
<!DOCTYPE svg PUBLIC "-//W3C//DTD SVG 20010904//EN"
 "http://www.w3.org/TR/2001/REC-SVG-20010904/DTD/svg10.dtd">
<svg version="1.0" xmlns="http://www.w3.org/2000/svg"
 width="512.000000pt" height="512.000000pt" viewBox="0 0 512.000000 512.000000"
 preserveAspectRatio="xMidYMid meet">
<metadata>
Created by potrace 1.11, written by Peter Selinger 2001-2013
</metadata>
<g transform="translate(0.000000,512.000000) scale(0.100000,-0.100000)"
fill="#000000" stroke="none">
<path d="M1075 4761 c-3 -5 -2 -12 3 -15 5 -3 9 1 9 9 0 17 -3 19 -12 6z"/>
<path d="M1139 4753 c-13 -16 -12 -17 4 -4 9 7 17 15 17 17 0 8 -8 3 -21 -13z"/>
<path d="M1555 4761 c-3 -5 -2 -12 3 -15 5 -3 9 1 9 9 0 17 -3 19 -12 6z"/>
<path d="M2995 4761 c-3 -5 -2 -12 3 -15 5 -3 9 1 9 9 0 17 -3 19 -12 6z"/>
<path d="M3059 4753 c-13 -16 -12 -17 4 -4 16 13 21 21 13 21 -2 0 -10 -8 -17
-17z"/>
<path d="M3475 4761 c-3 -5 -2 -12 3 -15 5 -3 9 1 9 9 0 17 -3 19 -12 6z"/>
<path d="M1470 4756 c0 -2 8 -10 18 -17 15 -13 16 -12 3 4 -13 16 -21 21 -21
13z"/>
<path d="M3390 4756 c0 -2 8 -10 18 -17 15 -13 16 -12 3 4 -13 16 -21 21 -21
13z"/>
<path d="M975 4741 c-3 -5 -2 -12 3 -15 5 -3 9 1 9 9 0 17 -3 19 -12 6z"/>
<path d="M1005 4740 c-3 -6 1 -7 9 -4 18 7 21 14 7 14 -6 0 -13 -4 -16 -10z"/>
<path d="M1257 4730 c3 -12 0 -20 -6 -20 -7 0 -9 5 -5 13 6 9 5 9 -7 0 -17
-13 -89 -15 -89 -2 0 5 -5 9 -11 9 -5 0 -7 -4 -4 -10 3 -5 -3 -10 -14 -10 -12
0 -21 6 -21 13 0 9 -2 9 -9 -1 -9 -14 -32 -13 -43 3 -5 6 -8 5 -8 -2 0 -7 -5
-13 -11 -13 -5 0 -7 5 -3 12 5 7 3 8 -7 2 -8 -5 -27 -9 -44 -10 -16 -2 -43 -5
-60 -8 -16 -3 -47 -9 -68 -12 -20 -4 -40 -11 -43 -15 -8 -14 -54 -11 -54 4 0
8 -3 8 -9 -2 -5 -8 -7 -21 -4 -30 3 -11 0 -10 -12 4 -17 20 -17 20 -10 -5 7
-22 6 -23 -8 -12 -20 17 -38 7 -30 -16 5 -14 4 -15 -8 -6 -9 8 -21 8 -34 3
-18 -9 -18 -9 3 -5 14 3 22 -1 22 -10 0 -8 -6 -11 -17 -7 -10 4 -14 2 -10 -4
3 -5 -14 -25 -38 -43 -25 -18 -41 -38 -38 -44 4 -6 -2 -4 -12 4 -10 8 -16 10
-12 3 9 -14 -2 -43 -15 -43 -6 0 -4 7 3 17 13 15 12 15 -8 2 -19 -11 -20 -15
-8 -22 9 -4 13 -13 9 -18 -3 -6 -12 -5 -22 3 -13 11 -14 10 -4 -8 9 -17 9 -24
-3 -34 -8 -7 -12 -17 -8 -24 3 -6 0 -5 -8 2 -12 11 -12 15 2 25 14 10 14 14 3
25 -16 14 -16 14 -18 -52 -1 -26 -6 -41 -16 -43 -13 -4 -13 -3 0 7 13 10 13
11 0 7 -8 -2 -15 -8 -15 -13 0 -5 -4 -15 -8 -21 -5 -8 -4 -13 2 -13 6 0 11 5
11 10 0 6 5 10 11 10 6 0 7 -5 2 -12 -4 -7 -8 -19 -9 -26 -2 -8 -6 -21 -10
-30 -4 -9 -8 -21 -8 -25 -2 -13 -29 -26 -41 -19 -6 3 -6 0 1 -9 9 -11 7 -21
-6 -42 -10 -16 -21 -28 -25 -27 -4 1 -9 -1 -11 -4 -2 -3 -1 -4 3 -1 3 3 12 0
20 -7 8 -6 13 -7 12 -2 -3 20 2 35 10 29 5 -3 13 0 17 6 5 8 3 9 -5 4 -10 -6
-11 -3 -2 12 6 11 7 23 4 27 -3 3 -2 6 4 6 6 0 10 -17 9 -39 -1 -29 -5 -37
-16 -34 -9 3 -8 -1 4 -11 15 -12 16 -16 5 -16 -12 0 -12 -2 1 -10 12 -8 12
-10 1 -10 -10 0 -11 -3 -2 -13 15 -19 5 -26 -27 -21 -26 5 -26 5 -7 -10 l20
-15 -20 -1 c-16 0 -17 -2 -5 -10 15 -9 33 7 24 22 -3 4 3 5 12 1 11 -4 13 -8
6 -11 -16 -5 -15 -42 1 -42 8 0 7 -4 -3 -10 -13 -8 -13 -10 -1 -10 11 0 9 -4
-4 -14 -19 -14 -19 -15 -2 -33 21 -24 14 -33 -21 -27 -26 5 -26 5 -7 -10 l20
-15 -20 -1 c-16 0 -17 -2 -5 -10 15 -9 33 7 24 22 -3 4 3 5 12 1 11 -4 13 -8
6 -11 -16 -5 -16 -49 0 -54 7 -3 5 -7 -6 -11 -9 -4 -15 -3 -12 2 4 5 -4 6 -16
3 -19 -5 -20 -7 -5 -10 9 -2 14 -8 11 -14 -4 -5 4 -24 16 -40 13 -17 18 -28
11 -24 -6 4 -11 2 -11 -3 0 -6 6 -11 13 -11 7 0 8 -3 2 -8 -15 -11 -17 -32 -2
-32 6 0 4 -5 -6 -11 -9 -5 -22 -7 -29 -3 -6 4 -8 3 -4 -4 3 -5 0 -13 -6 -16
-7 -3 3 -3 22 -1 35 5 35 5 10 -9 -14 -8 -26 -19 -26 -25 -1 -6 -2 -12 -4 -13
-1 -2 -3 -11 -5 -21 -3 -18 -3 -18 16 -1 13 12 16 21 9 29 -8 9 -6 14 6 19 9
4 19 4 22 1 3 -3 0 -5 -6 -5 -7 0 -12 -5 -12 -11 0 -5 4 -8 8 -5 5 3 9 -1 9
-9 0 -8 -4 -12 -9 -9 -4 3 -8 1 -8 -5 0 -5 3 -11 8 -14 4 -2 2 -2 -5 -1 -6 2
-17 -4 -23 -12 -7 -8 -9 -14 -5 -14 4 0 3 -6 -4 -13 -7 -10 -7 -17 0 -24 12
-12 3 -36 -11 -28 -5 3 -12 0 -16 -6 -4 -7 -3 -9 3 -6 6 4 16 0 23 -8 9 -10 9
-15 1 -15 -6 0 -11 -5 -11 -11 0 -5 5 -7 10 -4 6 3 10 -1 10 -9 0 -23 15 -19
17 4 1 11 -2 18 -7 15 -9 -5 -8 13 1 30 3 6 5 29 4 51 -1 32 2 40 13 37 11 -5
11 -7 0 -14 -10 -7 -10 -9 2 -9 12 0 13 -2 1 -9 -11 -7 -11 -9 0 -14 10 -4 10
-6 2 -6 -7 -1 -13 -6 -13 -12 0 -5 4 -8 8 -5 5 3 9 -1 9 -9 0 -8 -4 -12 -9 -9
-4 3 -8 -2 -8 -11 0 -9 4 -14 8 -11 10 6 9 -25 -2 -42 -4 -7 -2 -12 6 -12 9 0
9 -3 -2 -10 -12 -8 -13 -12 -2 -19 11 -6 10 -10 -3 -15 -9 -3 -22 -3 -27 1 -6
3 -8 1 -4 -5 3 -5 0 -13 -6 -16 -7 -3 3 -3 22 -1 35 5 35 5 10 -9 -14 -8 -26
-19 -26 -25 -1 -6 -2 -12 -4 -13 -1 -2 -3 -11 -5 -21 -3 -18 -3 -18 16 -1 13
12 16 21 9 29 -8 9 -6 14 6 19 9 4 19 4 22 1 3 -3 0 -5 -6 -5 -7 0 -12 -5 -12
-11 0 -5 4 -8 8 -5 5 3 9 -1 9 -9 0 -8 -4 -12 -9 -9 -4 3 -8 1 -8 -5 0 -5 3
-11 8 -14 4 -2 2 -2 -5 -1 -6 2 -17 -4 -23 -12 -7 -8 -9 -14 -5 -14 4 0 1 -8
-6 -17 -10 -11 -10 -14 -1 -9 6 4 12 2 12 -3 0 -6 -6 -11 -14 -11 -17 0 -29
-27 -15 -35 5 -4 8 -1 7 7 -2 7 3 12 10 10 6 -1 12 3 12 9 0 5 4 8 8 5 5 -3 9
1 9 9 0 8 -5 15 -10 15 -5 0 -4 6 2 13 6 8 8 17 4 21 -4 4 1 4 11 0 14 -5 15
-9 4 -15 -11 -8 -11 -10 1 -18 11 -7 11 -9 0 -14 -11 -4 -11 -6 0 -6 11 -1 10
-5 -4 -15 -19 -14 -19 -15 -2 -33 21 -24 14 -33 -21 -27 -26 5 -26 5 -7 -10
l20 -15 -20 -1 c-16 0 -17 -2 -5 -10 15 -9 33 7 24 22 -3 4 3 5 12 1 11 -4 13
-8 6 -11 -16 -5 -15 -42 1 -42 8 0 7 -4 -3 -10 -13 -8 -13 -10 -1 -10 11 0 9
-4 -4 -14 -19 -14 -19 -15 -2 -33 21 -24 14 -33 -21 -27 -26 5 -26 5 -7 -10
l20 -15 -20 -1 c-16 0 -17 -2 -5 -10 15 -9 33 7 24 22 -3 4 2 5 11 1 13 -5 14
-7 3 -14 -11 -7 -11 -12 0 -29 12 -19 11 -20 -5 -12 -13 7 -22 6 -32 -5 -12
-13 -11 -14 7 -9 12 4 23 2 28 -5 4 -7 3 -9 -4 -5 -6 3 -13 2 -17 -4 -4 -6
-11 -7 -17 -4 -7 5 -8 2 -3 -6 6 -10 4 -12 -11 -6 -15 6 -16 5 -7 -5 8 -8 16
-9 25 -2 30 24 54 7 35 -24 -5 -8 -3 -13 5 -13 9 0 9 -3 -2 -10 -10 -7 -11
-13 -4 -17 6 -5 4 -14 -8 -25 -9 -10 -20 -13 -23 -8 -3 5 2 13 11 18 11 6 13
11 5 16 -6 4 -11 2 -11 -4 0 -6 -4 -9 -8 -6 -11 6 -9 -34 1 -51 10 -15 0 -36
-13 -28 -5 3 -12 0 -16 -6 -4 -7 -3 -9 3 -6 6 4 16 1 22 -7 9 -11 9 -15 -1
-19 -7 -2 -9 -8 -5 -13 9 -9 28 16 21 27 -2 4 0 10 4 13 5 3 8 17 7 30 -2 19
1 23 13 18 10 -3 12 -7 4 -10 -7 -2 -12 -8 -12 -13 0 -6 4 -8 8 -5 5 3 9 -1 9
-9 0 -8 -4 -12 -9 -9 -4 3 -8 -2 -8 -10 0 -9 4 -16 9 -16 10 0 9 -19 -2 -37
-5 -8 -3 -13 5 -13 9 0 9 -3 -2 -10 -12 -8 -13 -12 -2 -19 11 -6 10 -10 -3
-15 -9 -3 -22 -3 -27 1 -6 3 -8 1 -4 -5 3 -5 0 -13 -6 -16 -7 -3 3 -3 22 -1
35 5 35 5 10 -9 -14 -8 -26 -19 -26 -25 -1 -6 -2 -12 -4 -13 -1 -2 -3 -11 -5
-21 -3 -18 -3 -18 16 -1 13 12 16 21 9 29 -8 9 -6 14 6 19 9 4 19 4 22 1 3 -3
0 -5 -6 -5 -7 0 -12 -5 -12 -11 0 -5 4 -8 8 -5 5 3 9 -1 9 -9 0 -8 -4 -12 -9
-9 -4 3 -8 1 -8 -5 0 -5 3 -11 7 -14 5 -2 3 -2 -4 -1 -12 3 -26 -12 -29 -32
-1 -6 4 -11 11 -11 7 0 12 8 10 18 -3 13 1 16 12 12 8 -3 11 -9 6 -12 -14 -10
-16 -44 -2 -35 8 4 10 3 5 -5 -6 -9 -11 -9 -22 0 -11 9 -15 8 -20 -4 -3 -9 -3
-20 0 -26 3 -5 3 -11 -1 -14 -5 -2 -2 -2 5 -1 6 2 12 -1 12 -6 0 -6 -9 -10
-19 -10 -32 0 -32 -15 -1 -16 16 -1 29 2 28 5 -2 20 3 31 13 25 8 -4 7 -9 -2
-15 -11 -7 -11 -9 1 -9 13 0 13 -1 0 -10 -13 -9 -13 -11 0 -20 8 -5 10 -10 4
-10 -6 0 -11 -7 -11 -15 0 -8 5 -15 11 -15 6 0 4 -5 -4 -10 -13 -8 -13 -10 -1
-10 11 0 9 -4 -4 -14 -19 -14 -19 -15 -2 -33 21 -24 14 -33 -21 -27 -26 5 -26
5 -7 -10 l20 -15 -20 -1 c-16 0 -17 -2 -5 -10 15 -9 33 7 24 22 -3 4 3 5 12 1
11 -4 13 -8 6 -11 -16 -5 -15 -42 1 -42 8 0 7 -4 -3 -10 -13 -8 -13 -10 -1
-10 11 0 9 -4 -4 -14 -19 -14 -19 -15 -2 -33 21 -24 14 -33 -21 -27 -26 5 -26
5 -7 -10 l20 -15 -20 -1 c-16 0 -17 -2 -5 -10 15 -9 33 7 24 22 -3 4 3 5 12 1
11 -4 13 -8 6 -11 -16 -5 -16 -49 0 -54 7 -3 5 -7 -6 -11 -9 -4 -15 -3 -12 2
4 5 -4 6 -16 3 -19 -5 -20 -7 -5 -10 9 -2 14 -8 11 -14 -4 -5 4 -24 16 -40 13
-17 18 -28 11 -24 -6 4 -11 2 -11 -3 0 -6 6 -11 13 -11 7 0 8 -3 2 -8 -15 -11
-17 -32 -3 -32 7 0 5 -5 -5 -11 -9 -5 -22 -7 -29 -3 -6 4 -8 3 -4 -4 3 -5 0
-13 -6 -16 -7 -3 3 -3 22 -1 35 5 35 5 10 -9 -14 -8 -26 -19 -26 -25 -1 -6 -2
-12 -4 -13 -1 -2 -3 -11 -5 -21 -3 -18 -3 -18 16 -1 13 12 16 21 9 29 -8 9 -6
14 6 19 9 4 19 4 22 1 3 -3 0 -5 -6 -5 -7 0 -12 -5 -12 -11 0 -5 4 -8 8 -5 5
3 9 -1 9 -9 0 -8 -4 -12 -9 -9 -4 3 -8 1 -8 -5 0 -5 3 -11 8 -14 4 -2 2 -2 -5
-1 -6 2 -17 -4 -23 -12 -7 -8 -9 -14 -5 -14 4 0 3 -6 -4 -13 -7 -10 -7 -17 0
-24 12 -12 3 -36 -11 -28 -5 3 -12 0 -16 -6 -4 -7 -3 -9 3 -6 6 4 16 0 23 -8
9 -10 9 -15 1 -15 -6 0 -11 -5 -11 -11 0 -5 4 -7 10 -4 5 3 10 -1 10 -9 0 -23
15 -19 17 4 1 11 -2 18 -7 15 -9 -5 -8 13 1 30 3 6 5 29 4 51 -1 32 2 40 13
37 11 -5 11 -7 0 -14 -10 -7 -10 -9 2 -9 12 0 13 -2 1 -9 -11 -7 -11 -9 0 -14
10 -4 10 -6 2 -6 -7 -1 -13 -6 -13 -12 0 -5 4 -8 8 -5 5 3 9 -1 9 -9 0 -8 -4
-12 -9 -9 -4 3 -8 -2 -8 -11 0 -9 4 -14 8 -11 10 6 9 -25 -2 -42 -4 -7 -2 -12
6 -12 9 0 9 -3 -2 -10 -12 -8 -13 -12 -2 -19 11 -6 10 -10 -3 -15 -9 -3 -22
-3 -27 1 -6 3 -8 1 -4 -5 3 -5 0 -13 -6 -16 -7 -3 3 -3 22 -1 35 5 35 5 10 -9
-14 -8 -26 -19 -26 -25 -1 -6 -2 -12 -4 -13 -1 -2 -3 -11 -5 -21 -3 -18 -3
-18 16 -1 13 12 16 21 9 29 -8 9 -6 14 6 19 9 4 19 4 22 1 3 -3 0 -5 -6 -5 -7
0 -12 -5 -12 -11 0 -5 4 -8 8 -5 5 3 9 -1 9 -9 0 -8 -4 -12 -9 -9 -4 3 -8 1
-8 -5 0 -5 3 -11 8 -14 4 -2 2 -2 -5 -1 -6 2 -17 -4 -23 -12 -7 -8 -9 -14 -5
-14 4 0 1 -8 -6 -17 -10 -11 -10 -14 -1 -9 6 4 12 2 12 -3 0 -6 -6 -11 -14
-11 -17 0 -29 -27 -15 -35 5 -4 8 -1 7 7 -2 7 3 12 10 11 6 -2 12 2 12 8 0 5
4 8 8 5 5 -3 9 1 9 9 0 8 -5 15 -10 15 -5 0 -4 6 2 13 6 8 8 17 4 21 -4 4 1 4
11 0 14 -5 15 -9 4 -15 -11 -8 -11 -10 1 -18 11 -7 11 -9 0 -14 -11 -4 -11 -6
0 -6 11 -1 10 -5 -4 -15 -19 -14 -19 -15 -2 -33 21 -24 14 -33 -21 -27 -26 5
-26 5 -7 -10 l20 -15 -20 -1 c-16 0 -17 -2 -5 -10 15 -9 33 7 24 22 -3 4 3 5
12 1 11 -4 13 -8 6 -11 -7 -2 -12 -13 -12 -23 0 -13 4 -18 12 -13 7 4 8 3 4
-5 -5 -8 -12 -9 -20 -2 -8 7 -17 6 -26 -1 -12 -8 -11 -9 3 -4 12 4 17 2 14 -6
-2 -7 -9 -12 -14 -11 -5 1 -10 -4 -10 -12 0 -8 4 -12 8 -9 5 2 6 -9 4 -26 -2
-16 1 -30 6 -30 6 0 7 -5 4 -10 -4 -6 -10 -8 -14 -6 -4 3 -8 -1 -8 -9 0 -11 5
-10 24 2 13 9 26 13 30 9 3 -3 1 -6 -5 -6 -7 0 -12 -5 -12 -11 0 -5 4 -8 8 -5
4 2 8 -4 8 -14 0 -10 -6 -16 -13 -13 -7 3 -10 9 -7 14 3 5 1 9 -4 9 -5 0 -12
-8 -16 -17 -3 -10 -9 -25 -12 -33 -3 -8 0 -7 6 3 13 20 31 23 27 5 -1 -7 -13
-18 -27 -25 -24 -12 -24 -12 -3 -13 12 0 25 -4 28 -10 3 -5 12 -10 18 -10 8 0
8 3 2 8 -13 9 -15 52 -3 52 5 0 8 -6 5 -12 -2 -7 0 -21 5 -30 6 -14 2 -21 -21
-33 -16 -8 -33 -21 -37 -27 -6 -10 -4 -11 7 0 17 16 34 16 21 0 -5 -8 -6 -22
-1 -33 4 -11 8 -14 8 -7 1 7 6 10 12 7 7 -5 4 -14 -7 -26 -9 -11 -14 -22 -11
-26 4 -3 7 -1 7 4 0 6 8 10 17 8 10 -2 20 -4 22 -4 3 -1 -4 -8 -15 -16 -19
-15 -19 -15 1 -8 18 6 19 5 5 -12 -9 -11 -10 -16 -3 -11 7 4 13 2 13 -3 0 -6
5 -11 11 -11 6 0 7 5 2 12 -11 19 -11 58 0 65 6 3 7 1 4 -4 -4 -6 1 -14 11
-18 16 -6 16 -7 -1 -16 -17 -10 -15 -29 4 -29 6 0 7 6 3 12 -5 9 -2 9 9 -1 20
-16 22 -22 5 -18 -7 1 -13 -5 -13 -15 0 -9 -9 -27 -20 -40 l-20 -23 21 18 c24
20 40 12 19 -10 -8 -8 -15 -20 -15 -26 0 -7 5 -4 11 6 8 14 14 16 25 6 7 -6
12 -14 10 -18 -3 -4 -1 -13 5 -21 6 -10 9 -11 9 -2 0 6 5 12 11 12 5 0 7 -5 4
-11 -10 -14 26 -39 47 -33 12 4 16 1 13 -9 -4 -8 1 -14 10 -14 9 0 14 6 11 13
-3 8 0 11 10 7 7 -3 14 -9 14 -13 0 -4 14 -13 31 -20 21 -9 27 -16 20 -23 -15
-15 -43 -18 -34 -4 3 7 3 9 -2 5 -4 -4 -15 -2 -24 4 -11 9 -10 6 2 -9 10 -11
15 -23 10 -25 -4 -3 -2 -3 5 -1 8 1 25 3 38 3 16 0 23 4 19 11 -4 6 2 5 14 -3
12 -7 21 -16 21 -20 0 -4 12 -3 26 2 16 7 23 7 19 0 -3 -6 -13 -10 -21 -10 -8
0 -12 -5 -9 -10 4 -6 10 -8 14 -5 5 2 16 -1 26 -9 15 -11 16 -13 1 -13 -9 0
-16 5 -16 10 0 6 -3 7 -6 4 -11 -10 -13 -56 -4 -62 5 -3 7 6 4 20 -4 25 13 31
28 10 5 -6 8 -5 8 3 0 6 7 12 15 12 8 0 15 5 15 11 0 5 -3 8 -8 5 -4 -2 -16 2
-27 10 -19 14 -19 14 4 11 13 -2 29 -11 36 -20 7 -9 14 -15 17 -12 2 3 5 -2 5
-10 0 -8 -3 -12 -7 -10 -3 2 -6 -5 -7 -15 -1 -11 2 -22 8 -25 5 -3 6 1 3 9 -4
12 1 14 25 11 17 -2 31 0 31 5 0 6 -3 9 -7 9 -22 -4 -32 3 -30 20 1 12 8 19
20 18 16 -1 16 -3 3 -13 -9 -6 -13 -14 -9 -17 3 -4 13 -2 20 5 11 9 17 9 24
-3 8 -13 14 -5 9 16 -1 5 9 1 21 -10 21 -19 22 -19 15 -1 -6 16 -4 17 10 5 21
-17 44 -20 44 -6 0 7 5 5 10 -3 16 -24 12 -31 -15 -26 -14 3 -23 1 -20 -4 3
-5 -4 -7 -15 -5 -11 2 -20 -1 -20 -6 0 -5 6 -9 14 -7 8 2 22 -6 31 -17 16 -20
16 -20 6 2 -7 13 -7 24 -2 27 5 4 12 0 15 -6 5 -11 7 -11 12 0 3 6 10 10 15 6
5 -3 5 -14 -2 -27 -10 -22 -10 -22 6 -2 9 11 24 19 33 17 14 -3 13 -1 -3 11
-11 9 -23 13 -27 11 -5 -3 -8 0 -8 5 0 6 7 11 15 11 8 0 15 -4 15 -10 0 -5 12
-10 26 -10 24 0 25 -2 13 -17 -13 -16 -12 -17 3 -4 16 12 22 9 20 -10 -1 -3 5
-6 13 -6 8 0 12 4 10 8 -3 4 2 9 9 12 9 4 17 -1 19 -11 3 -9 4 0 2 20 -1 25 3
42 14 50 14 12 14 11 2 -5 -9 -11 -10 -17 -2 -17 7 0 10 -10 7 -24 -3 -18 -1
-23 10 -19 8 3 14 9 14 15 0 5 -5 6 -12 2 -7 -4 -8 -3 -4 5 4 6 12 9 17 6 9
-6 13 8 9 35 -1 10 3 9 14 -5 8 -11 15 -24 16 -30 0 -5 -5 -3 -10 5 -5 8 -10
11 -10 5 0 -5 5 -17 10 -25 7 -11 10 -11 10 -2 0 7 5 10 10 7 7 -4 6 -14 -1
-28 -10 -22 -10 -22 6 -2 9 11 24 19 33 17 14 -3 13 -1 -3 11 -11 9 -23 13
-27 11 -5 -3 -8 0 -8 5 0 6 7 11 15 11 8 0 15 -4 15 -10 0 -5 12 -10 26 -10
24 0 25 -2 13 -18 -13 -15 -12 -16 3 -3 16 12 22 9 20 -10 -1 -3 5 -6 13 -6 8
0 12 4 10 8 -3 4 2 9 9 12 9 4 17 -1 19 -11 3 -9 4 0 2 20 -1 25 3 42 14 50
14 12 14 11 2 -4 -9 -12 -10 -18 -2 -18 7 0 10 -10 7 -24 -3 -18 -1 -23 10
-19 8 3 14 9 14 15 0 5 -5 6 -12 2 -7 -4 -8 -3 -4 5 4 6 12 9 17 6 9 -6 13 7
10 35 -2 13 0 13 8 1 5 -8 7 -20 4 -27 -2 -6 1 -15 6 -19 6 -3 8 -12 4 -18 -4
-8 -1 -7 9 1 14 11 18 10 27 -5 10 -17 10 -17 11 0 0 9 -5 17 -11 17 -5 0 -8
4 -4 9 3 5 0 13 -6 17 -7 4 -9 3 -6 -3 3 -5 0 -10 -8 -10 -10 0 -11 5 -4 18
12 23 31 35 23 15 -3 -9 -1 -16 5 -16 6 0 11 6 11 13 0 8 4 7 10 -3 5 -8 10
-19 10 -25 0 -5 -5 -3 -10 5 -6 9 -10 10 -10 3 0 -6 5 -15 10 -18 6 -4 7 -12
3 -18 -3 -7 3 -4 15 7 19 16 24 17 38 5 13 -11 18 -11 21 -2 4 10 10 10 25 2
15 -8 19 -8 14 0 -8 12 21 11 42 -3 7 -4 19 -2 27 4 12 10 19 10 32 -1 13 -11
17 -11 20 -2 4 10 10 10 25 2 15 -8 19 -8 14 0 -9 14 21 10 51 -7 14 -8 24 -9
28 -2 10 16 27 0 20 -19 -4 -10 1 -8 15 6 24 27 35 29 26 7 -3 -8 -2 -12 4 -9
5 3 8 19 6 35 -2 19 3 34 13 42 14 12 14 11 2 -4 -9 -12 -10 -18 -2 -18 12 0
9 -39 -5 -62 -4 -7 3 -3 15 9 23 24 28 39 9 27 -7 -4 -8 -3 -4 5 4 6 12 9 17
6 9 -6 13 7 10 35 -1 11 1 10 10 -3 9 -15 13 -16 27 -5 12 10 14 10 8 0 -4 -7
-1 -12 8 -12 10 0 13 6 10 18 -5 13 -4 14 4 3 6 -8 8 -19 6 -26 -6 -15 -34
-15 -34 -1 0 6 -5 4 -10 -4 -8 -12 -10 -12 -10 -1 0 8 -3 12 -6 8 -3 -3 1 -16
10 -29 9 -12 16 -17 16 -10 0 7 4 11 9 7 5 -3 13 0 17 6 5 8 13 4 26 -12 15
-20 17 -21 12 -4 -4 11 -4 17 1 13 4 -4 14 -3 22 3 9 9 17 8 27 0 10 -8 16 -9
21 -1 3 5 11 10 17 10 6 0 5 -7 -3 -17 -13 -16 -12 -17 3 -4 15 11 19 11 24
-3 5 -14 7 -14 21 0 13 13 17 13 24 2 6 -8 7 -1 5 19 -2 22 2 37 13 45 14 12
14 11 2 -4 -9 -12 -10 -18 -2 -18 7 0 10 -10 7 -25 -3 -13 0 -28 6 -31 7 -4 8
-2 4 4 -4 7 -2 12 3 12 6 0 11 5 11 11 0 5 -5 7 -12 3 -7 -4 -8 -3 -4 5 4 6
12 9 17 6 9 -6 12 5 10 35 0 10 1 11 5 2 3 -6 10 -10 15 -6 5 3 9 0 9 -6 0 -6
4 -8 10 -5 6 3 7 -1 3 -10 -4 -13 -8 -14 -14 -4 -4 8 -11 10 -15 6 -10 -9 28
-37 40 -30 5 4 7 -4 3 -17 -3 -13 -2 -19 3 -14 14 14 20 62 8 66 -6 2 -3 10 6
17 14 12 16 11 10 -5 -6 -16 -5 -17 7 -7 7 7 17 13 23 13 5 0 1 -6 -9 -14 -20
-14 -14 -53 7 -40 8 5 9 0 6 -14 -4 -12 -2 -20 3 -16 5 3 9 12 9 20 0 8 4 13
9 9 5 -3 12 -1 16 5 3 5 11 10 17 10 6 0 5 -7 -3 -17 -11 -15 -10 -15 8 1 20
16 25 17 39 5 13 -11 18 -11 21 -2 4 10 10 10 25 2 15 -8 19 -8 14 0 -8 12 21
11 42 -3 7 -4 19 -2 27 4 12 10 19 10 32 -1 13 -11 17 -11 20 -2 4 10 10 10
25 2 15 -8 19 -8 14 0 -9 14 21 10 52 -7 12 -7 22 -8 22 -3 0 9 -33 24 -54 26
-5 0 -11 11 -13 24 l-3 24 18 -22 17 -22 30 22 c18 14 24 17 16 6 -9 -11 -10
-17 -2 -17 7 0 10 -10 7 -24 -3 -18 -1 -23 10 -19 8 3 14 9 14 15 0 5 -5 6
-12 2 -7 -4 -8 -3 -4 5 4 6 12 9 17 6 9 -6 13 8 9 35 -1 10 3 9 14 -5 8 -11
15 -24 16 -30 0 -5 -5 -3 -10 5 -5 8 -10 11 -10 5 0 -5 5 -17 10 -25 7 -11 10
-11 10 -2 0 7 5 10 10 7 7 -4 6 -14 -1 -28 -10 -22 -10 -22 6 -2 9 11 24 19
33 17 14 -3 13 -1 -3 11 -11 9 -23 13 -27 11 -5 -3 -8 0 -8 5 0 6 7 11 15 11
8 0 15 -4 15 -10 0 -5 12 -10 26 -10 24 0 25 -2 13 -18 -13 -15 -12 -16 4 -3
15 12 21 9 19 -10 -1 -3 5 -6 13 -6 8 0 12 4 10 8 -3 4 2 9 9 12 9 4 17 -1 19
-11 3 -9 4 0 2 20 -1 25 3 42 14 50 14 12 14 11 2 -4 -9 -12 -10 -18 -2 -18 7
0 10 -10 7 -24 -3 -18 -1 -23 10 -19 8 3 14 9 14 15 0 5 -5 6 -12 2 -7 -4 -8
-3 -4 5 4 6 12 9 17 6 9 -6 13 8 9 35 -1 10 3 9 14 -5 8 -11 15 -24 16 -30 0
-5 -5 -3 -10 5 -5 8 -10 11 -10 5 0 -5 5 -17 10 -25 7 -11 10 -11 10 -2 0 7 5
10 10 7 7 -4 6 -14 -1 -28 -10 -22 -10 -22 6 -2 9 11 24 19 33 17 14 -3 13 -1
-3 11 -11 9 -23 13 -27 11 -5 -3 -8 0 -8 5 0 6 7 11 15 11 8 0 15 -4 15 -10 0
-5 12 -10 26 -10 24 0 25 -2 13 -18 -13 -15 -12 -16 4 -3 15 12 21 9 19 -10
-1 -3 5 -6 13 -6 8 0 12 4 10 8 -3 4 2 9 9 12 9 4 17 -1 19 -11 3 -9 4 0 2 20
-1 25 3 42 14 50 14 12 14 11 2 -4 -9 -12 -10 -18 -2 -18 7 0 10 -10 7 -24 -3
-18 -1 -23 10 -19 8 3 14 9 14 15 0 5 -5 6 -12 2 -7 -4 -8 -3 -4 5 4 6 12 9
17 6 9 -6 13 7 10 35 -2 13 0 13 8 1 5 -8 7 -20 4 -27 -2 -6 1 -15 6 -19 6 -3
8 -12 4 -18 -4 -8 -1 -7 9 1 14 11 18 10 27 -5 10 -17 10 -17 11 0 0 9 -5 17
-11 17 -5 0 -8 4 -4 9 3 5 0 13 -6 17 -7 4 -9 3 -6 -3 3 -5 0 -10 -8 -10 -10
0 -11 5 -4 18 12 23 31 35 23 15 -3 -9 -1 -16 5 -16 6 0 11 6 11 13 0 8 4 7
10 -3 5 -8 10 -19 10 -25 0 -5 -5 -3 -10 5 -6 9 -10 10 -10 3 0 -6 5 -15 10
-18 6 -4 7 -12 3 -18 -3 -7 3 -4 15 7 19 16 24 17 38 5 13 -11 18 -11 21 -2 4
10 10 10 25 2 15 -8 19 -8 14 0 -8 12 21 11 42 -3 7 -4 19 -2 27 4 12 10 19
10 32 -1 13 -11 17 -11 20 -2 4 10 10 10 25 2 15 -8 19 -8 14 0 -9 14 21 10
51 -7 14 -8 24 -9 28 -2 10 16 27 0 20 -19 -4 -10 1 -8 15 7 24 26 35 28 26 6
-3 -8 -2 -12 4 -9 5 3 8 19 6 35 -2 19 3 34 13 42 14 12 14 11 2 -4 -9 -12
-10 -18 -2 -18 12 0 9 -39 -5 -62 -4 -7 3 -3 15 9 23 24 28 39 9 27 -7 -4 -8
-3 -4 5 4 6 12 9 17 6 9 -6 13 7 10 35 -2 13 -1 13 8 0 5 -8 7 -18 5 -22 -3
-4 2 -18 10 -30 9 -12 16 -17 16 -10 0 7 4 11 9 7 5 -3 13 0 17 6 5 8 13 4 26
-12 14 -18 17 -20 11 -5 -4 13 -3 17 5 12 6 -3 14 -1 18 5 5 9 11 6 21 -7 14
-19 14 -19 11 0 -2 10 3 21 10 23 7 3 10 -1 6 -11 -3 -9 -1 -16 6 -16 6 0 9 4
6 9 -3 5 9 9 27 8 17 0 39 2 47 4 8 2 14 -1 13 -7 -1 -8 6 -10 19 -6 20 5 21
6 3 12 -13 4 -15 9 -7 14 7 4 16 4 22 1 5 -3 7 0 4 8 -2 7 -11 14 -19 14 -8 0
-12 -4 -9 -8 2 -4 -5 -6 -16 -4 -11 2 -24 -3 -30 -13 -5 -9 -10 -12 -10 -5 0
6 -11 10 -25 8 -24 -2 -25 -1 -9 16 9 11 22 19 28 18 6 0 6 -3 -2 -6 -16 -6
-16 -24 0 -20 7 1 21 10 32 19 21 19 36 23 36 10 0 -17 30 -8 36 10 6 19 24
25 24 7 0 -5 5 -7 10 -4 6 4 7 11 4 17 -4 6 -2 8 4 4 5 -3 12 -3 15 1 2 5 2 2
1 -4 -2 -7 6 -17 16 -23 16 -9 25 -6 45 14 23 23 30 24 26 3 -1 -5 4 -5 10 -2
7 5 7 11 1 17 -11 11 -5 38 9 38 4 0 6 -8 3 -17 -5 -16 -4 -16 9 0 9 11 13 25
10 33 -4 11 -8 11 -27 -1 -11 -9 -21 -21 -21 -28 -1 -6 -6 -11 -13 -10 -6 2
-9 -4 -6 -12 4 -8 2 -15 -2 -16 -5 0 -17 -2 -27 -4 -9 -2 -15 1 -11 6 3 5 12
9 19 9 8 0 12 6 10 13 -5 11 58 62 77 62 5 0 12 6 17 14 7 10 13 11 29 2 31
-17 37 -13 11 7 l-22 19 31 23 c17 13 29 27 26 32 -3 5 0 7 8 6 7 -2 12 3 11
9 -2 7 3 12 9 10 7 -1 14 8 16 21 2 12 7 22 12 22 13 0 2 -43 -13 -55 -9 -6
-11 -17 -7 -30 7 -18 8 -18 11 5 3 14 10 24 17 22 8 -1 10 2 7 9 -4 6 2 17 14
25 16 12 20 22 16 46 -5 29 -4 30 12 17 10 -7 15 -10 11 -5 -4 5 -3 18 3 30
10 21 10 21 -6 1 -9 -11 -19 -20 -23 -20 -4 0 -7 -13 -7 -29 0 -17 -6 -31 -15
-34 -12 -4 -13 -2 -4 9 6 8 10 24 8 36 -4 25 30 63 55 63 14 0 14 1 1 10 -20
13 -31 12 -27 -1 1 -6 -5 -14 -13 -16 -12 -4 -12 -3 -2 5 8 5 13 12 13 16 -1
3 -1 7 0 9 4 12 10 44 11 54 1 7 5 10 10 7 5 -4 7 -13 3 -22 -3 -9 -3 -13 1
-9 4 4 14 2 21 -5 8 -6 5 5 -7 25 -17 29 -20 40 -11 51 9 11 9 15 -1 19 -7 3
-8 6 -2 6 6 1 10 22 8 56 -2 45 1 55 16 60 25 8 44 32 25 32 -8 0 -12 -4 -9
-9 3 -4 0 -8 -5 -8 -6 0 -14 -1 -18 -2 -3 -2 -7 5 -9 15 -1 9 2 15 7 11 5 -3
9 0 9 5 0 6 -3 11 -7 11 -5 0 -8 41 -8 90 -1 50 3 90 7 90 4 0 8 5 8 11 0 5
-3 8 -7 6 -14 -9 -10 137 4 151 7 7 13 18 13 25 0 6 -6 3 -12 -6 -11 -14 -13
3 -13 95 -1 79 3 117 12 126 7 7 13 18 13 25 0 6 -6 3 -12 -6 -11 -14 -13 3
-14 98 0 63 4 115 8 115 4 0 8 5 8 11 0 5 -3 8 -7 6 -14 -9 -10 137 4 151 7 7
13 18 13 25 0 6 -6 3 -12 -6 -11 -14 -13 3 -13 95 -1 79 3 117 12 126 7 7 13
18 13 25 0 6 -6 3 -13 -6 -10 -14 -12 3 -13 98 0 63 4 115 8 115 4 0 8 5 8 11
0 5 -3 8 -7 6 -14 -9 -10 137 4 151 7 7 13 18 13 25 0 6 -6 3 -12 -6 -11 -14
-13 3 -13 95 -1 79 3 117 12 126 7 7 13 18 13 25 0 6 -6 3 -12 -6 -11 -14 -13
3 -14 98 0 63 4 115 8 115 4 0 8 5 8 11 0 5 -3 8 -7 6 -14 -9 -10 137 4 151 7
7 13 18 13 25 0 6 -6 3 -12 -6 -11 -14 -13 3 -13 95 -1 79 3 117 12 126 7 7
13 18 13 25 0 6 -6 3 -12 -6 -11 -14 -13 3 -14 98 0 63 4 115 8 115 4 0 8 5 8
11 0 5 -3 8 -7 6 -14 -9 -10 137 4 151 7 7 13 18 13 25 0 6 -6 3 -12 -6 -11
-14 -13 -3 -13 65 0 46 4 86 9 89 12 9 17 59 5 59 -5 0 -8 -9 -6 -19 1 -11 -2
-19 -8 -18 -5 1 -10 13 -11 27 0 14 -6 39 -12 55 -22 54 -23 58 -10 67 10 6 8
8 -4 8 -10 0 -18 7 -18 15 0 8 -4 15 -8 15 -5 0 -15 18 -22 40 -7 22 -16 38
-18 35 -9 -8 -42 48 -35 58 3 6 1 7 -5 3 -10 -6 -52 30 -52 45 0 4 -9 9 -20
12 -11 3 -20 10 -20 17 0 6 4 9 8 6 5 -3 9 1 9 9 0 10 -4 12 -13 5 -8 -7 -20
-7 -38 1 -29 14 -31 19 -13 39 6 8 3 7 -9 -3 -20 -17 -22 -17 -38 5 -9 13 -14
17 -11 11 3 -7 1 -13 -4 -13 -6 0 -11 4 -11 9 0 5 -15 11 -32 15 -26 5 -30 9
-18 16 9 6 10 10 3 10 -6 0 -15 -5 -19 -11 -4 -8 -9 -7 -15 2 -4 8 -3 20 4 29
11 13 10 13 -5 1 -10 -7 -15 -18 -12 -23 4 -6 -1 -8 -12 -4 -41 12 -104 24
-104 19 0 -3 -8 1 -17 8 -11 10 -14 10 -9 2 4 -8 2 -13 -8 -13 -8 0 -17 6 -19
13 -4 10 -6 10 -6 0 -1 -7 -6 -13 -12 -13 -5 0 -8 4 -4 9 3 5 0 13 -6 17 -7 4
-9 3 -5 -4 10 -17 -13 -25 -31 -10 -12 9 -15 9 -9 1 4 -8 2 -13 -5 -13 -6 0
-9 8 -6 20 3 11 1 18 -4 14 -5 -3 -9 -12 -9 -20 0 -8 -5 -14 -11 -14 -5 0 -7
6 -3 13 5 7 1 7 -10 -2 -15 -13 -19 -13 -27 0 -7 12 -9 12 -9 -1 0 -12 -2 -13
-9 -1 -7 11 -9 11 -14 0 -4 -12 -7 -11 -16 1 -7 9 -11 10 -11 3 0 -6 -13 -11
-30 -11 -16 1 -27 4 -25 8 2 4 -2 7 -10 7 -8 0 -12 -4 -10 -7 3 -4 -6 -7 -19
-7 -14 0 -23 5 -22 11 2 6 1 8 -1 3 -3 -4 -10 -4 -15 -1 -7 4 -8 2 -4 -4 4 -7
2 -12 -3 -12 -6 0 -11 6 -11 13 0 8 -3 8 -8 1 -8 -12 -51 -12 -71 0 -9 6 -12
5 -8 -1 4 -6 -3 -10 -17 -10 -14 0 -23 5 -22 11 2 6 1 8 -1 3 -3 -4 -10 -4
-15 -1 -7 4 -8 2 -4 -4 4 -7 2 -12 -3 -12 -6 0 -11 6 -11 13 0 7 -3 8 -8 2
-10 -15 -75 -16 -84 -2 -6 9 -8 9 -8 0 0 -6 -9 -11 -20 -10 -11 1 -20 5 -20 9
0 4 -5 8 -11 8 -5 0 -8 -4 -5 -9 3 -5 -6 -8 -19 -8 -14 0 -25 3 -25 8 0 5 -5
9 -11 9 -5 0 -7 -4 -4 -10 3 -5 -1 -10 -9 -10 -9 0 -16 6 -16 13 0 8 -2 9 -8
1 -8 -13 -64 -16 -57 -3 3 4 0 11 -6 15 -7 4 -9 3 -5 -4 10 -17 -13 -25 -31
-10 -12 9 -15 9 -9 1 4 -8 2 -13 -5 -13 -6 0 -9 8 -6 20 3 11 1 18 -4 14 -5
-3 -9 -12 -9 -20 0 -8 -4 -14 -10 -14 -5 0 -10 6 -10 14 0 8 -4 17 -9 20 -5 4
-7 -3 -4 -14 3 -12 0 -20 -6 -20 -7 0 -9 5 -6 11 4 6 -2 5 -14 -3 -17 -11 -25
-11 -42 0 -12 8 -18 9 -14 3 3 -6 -1 -11 -9 -11 -9 0 -16 5 -16 10 0 6 -5 10
-11 10 -5 0 -7 -4 -4 -10 3 -5 -3 -10 -14 -10 -12 0 -21 6 -21 13 0 8 -3 9 -8
1 -8 -13 -42 -15 -42 -2 0 4 -5 8 -11 8 -5 0 -8 -4 -5 -9 3 -5 -6 -8 -19 -8
-14 0 -25 3 -25 8 0 5 -5 9 -11 9 -5 0 -7 -4 -4 -10 9 -14 -8 -12 -24 3 -8 7
-11 7 -8 1 4 -7 -3 -11 -17 -11 -14 0 -23 5 -22 11 2 6 1 8 -1 3 -3 -4 -10 -4
-15 -1 -7 4 -8 2 -4 -4 4 -7 2 -12 -3 -12 -6 0 -11 6 -11 13 0 8 -3 8 -8 1 -8
-12 -51 -12 -71 0 -9 6 -12 5 -8 -1 4 -6 -3 -10 -17 -10 -14 0 -23 5 -22 11 2
6 1 8 -1 3 -3 -4 -10 -4 -15 -1 -7 4 -8 2 -4 -4 4 -7 2 -12 -3 -12 -6 0 -11 6
-11 13 0 7 -3 8 -8 2 -10 -14 -65 -15 -74 -1 -6 8 -8 8 -8 -1 0 -6 -13 -11
-30 -11 -16 1 -27 5 -24 9 2 4 -1 11 -7 15 -7 4 -9 3 -5 -4 10 -17 -13 -25
-31 -10 -12 9 -15 9 -9 1 4 -8 2 -13 -5 -13 -6 0 -9 8 -6 20 3 11 1 18 -4 14
-5 -3 -9 -12 -9 -20 0 -8 -5 -14 -11 -14 -5 0 -7 6 -3 13 5 7 1 7 -10 -2 -15
-13 -19 -13 -27 0 -7 12 -9 12 -9 -1 0 -12 -2 -13 -9 -1 -7 11 -9 11 -14 0 -4
-12 -7 -11 -16 1 -6 9 -11 10 -11 4 0 -16 -70 -16 -70 0 0 8 -2 8 -8 0 -8 -13
-64 -16 -57 -3 3 4 0 11 -6 15 -7 4 -9 3 -5 -4 10 -17 -13 -25 -31 -10 -12 9
-15 9 -9 1 4 -8 2 -13 -5 -13 -6 0 -9 8 -6 20 3 11 1 18 -4 14 -5 -3 -9 -12
-9 -20 0 -8 -5 -14 -11 -14 -5 0 -7 6 -3 13 5 7 1 7 -10 -2 -15 -13 -19 -13
-27 0 -7 12 -9 12 -9 -1 0 -12 -2 -13 -9 -1 -7 11 -9 11 -14 0 -4 -12 -7 -11
-16 1 -7 9 -11 10 -11 3 0 -6 -13 -11 -30 -11 -16 1 -27 4 -25 8 2 4 -2 7 -10
7 -8 0 -12 -4 -10 -7 3 -4 -6 -7 -19 -7 -14 0 -23 5 -22 11 2 6 1 8 -1 3 -3
-4 -10 -4 -15 -1 -7 4 -8 2 -4 -4 4 -7 2 -12 -3 -12 -6 0 -11 6 -11 13 0 8 -3
8 -8 1 -8 -12 -51 -12 -71 0 -9 6 -12 5 -8 -1 4 -6 -3 -10 -17 -10 -14 0 -23
5 -22 11 2 6 1 8 -1 3 -3 -4 -10 -4 -15 -1 -7 4 -8 2 -4 -4 4 -7 2 -12 -3 -12
-6 0 -11 6 -11 13 0 7 -3 8 -8 2 -10 -15 -75 -16 -84 -2 -6 9 -8 9 -8 0 0 -6
-9 -11 -20 -10 -11 1 -20 5 -20 9 0 4 -5 8 -11 8 -5 0 -8 -4 -5 -9 3 -5 -6 -8
-19 -8 -14 0 -25 3 -25 8 0 5 -5 9 -11 9 -5 0 -7 -4 -4 -10 3 -5 -1 -10 -9
-10 -9 0 -16 6 -16 13 0 8 -2 9 -8 1 -8 -13 -64 -16 -57 -3 3 4 0 11 -6 15 -7
4 -9 3 -5 -4 10 -17 -13 -25 -31 -10 -12 9 -15 9 -9 1 4 -8 2 -13 -5 -13 -6 0
-9 8 -6 20 3 11 1 18 -4 14 -5 -3 -9 -12 -9 -20 0 -8 -4 -14 -10 -14 -5 0 -10
6 -10 14 0 8 -4 17 -9 20 -5 4 -7 -3 -4 -14z m-557 -100 c0 -5 -2 -10 -4 -10
-3 0 -8 5 -11 10 -3 6 -1 10 4 10 6 0 11 -4 11 -10z m-294 -855 c0 -19 -3 -22
-13 -13 -10 8 -10 14 -2 24 15 18 15 18 15 -11z m-29 -270 c0 -8 -4 -12 -9 -9
-5 3 -6 10 -3 15 9 13 12 11 12 -6z m28 -785 c3 -5 1 -10 -4 -10 -6 0 -11 5
-11 10 0 6 2 10 4 10 3 0 8 -4 11 -10z m-7 -381 c-15 -10 -28 -2 -28 17 0 12
4 12 20 2 13 -8 16 -15 8 -19z m8 -484 c0 -19 -3 -22 -13 -13 -10 8 -10 14 -2
24 15 18 15 18 15 -11z m-29 -270 c0 -8 -4 -12 -9 -9 -5 3 -6 10 -3 15 9 13
12 11 12 -6z m29 -511 c-1 -8 -5 -17 -9 -20 -4 -4 -2 -13 4 -20 7 -8 6 -14 -2
-19 -6 -4 -15 -1 -20 6 -12 19 -11 29 2 29 8 0 9 4 0 13 -12 15 -8 24 13 24 7
0 13 -6 12 -13z m19 -244 c10 -11 15 -23 12 -27 -4 -3 -7 -1 -7 6 0 7 -5 9
-11 5 -8 -4 -8 -9 0 -17 16 -16 14 -34 -4 -34 -11 0 -12 4 -4 13 7 9 4 16 -12
28 -20 14 -21 16 -5 22 14 5 15 9 4 15 -7 5 -8 9 -2 9 6 0 19 -9 29 -20z
m4229 -136 c3 -8 2 -12 -4 -9 -6 3 -10 10 -10 16 0 14 7 11 14 -7z m-4163 -24
c1 -5 2 -14 3 -19 2 -15 16 -26 16 -13 0 7 5 12 12 12 9 0 9 -3 0 -12 -19 -19
-14 -32 6 -17 9 7 14 10 10 5 -4 -5 -3 -17 3 -27 6 -13 6 -19 -1 -19 -5 0 -10
8 -10 17 0 15 -2 14 -16 -3 -8 -10 -12 -13 -8 -5 3 7 0 17 -7 22 -8 4 -15 13
-15 19 -1 5 -2 11 -4 13 -7 9 -7 37 1 37 5 0 10 -4 10 -10z m82 -92 c-4 -7 -8
-16 -9 -20 -1 -5 -2 -11 -3 -14 0 -4 -8 -1 -16 6 -14 11 -13 14 7 25 30 17 30
17 21 3z m22 -18 c3 -5 1 -10 -4 -10 -6 0 -11 5 -11 10 0 6 2 10 4 10 3 0 8
-4 11 -10z m470 -170 c3 -5 1 -10 -4 -10 -6 0 -11 5 -11 10 0 6 2 10 4 10 3 0
8 -4 11 -10z m100 0 c-3 -5 -12 -10 -18 -10 -7 0 -6 4 3 10 19 12 23 12 15 0z
m29 -5 c-4 -8 -10 -15 -15 -15 -5 0 -9 -4 -9 -10 0 -5 8 -7 18 -4 15 5 14 4
-2 -10 -20 -16 -47 -6 -45 18 0 7 3 6 6 -2 3 -8 11 -4 25 13 22 28 30 32 22
10z m169 -8 c4 3 7 1 7 -5 0 -17 -20 -15 -26 2 -3 8 -13 12 -22 9 -15 -4 -15
-3 -2 6 11 8 18 7 26 -4 6 -8 14 -12 17 -8z m42 13 c-3 -5 -12 -10 -18 -10 -7
0 -6 4 3 10 19 12 23 12 15 0z m29 -5 c-4 -8 -10 -15 -15 -15 -5 0 -9 -4 -9
-10 0 -5 8 -7 18 -4 15 5 14 4 -2 -10 -20 -16 -47 -6 -45 18 0 7 3 6 6 -2 3
-8 11 -4 25 13 22 28 30 32 22 10z m175 -4 c8 -14 7 -22 -7 -32 -15 -13 -16
-12 -4 3 9 11 10 18 2 23 -5 3 -10 10 -10 16 0 15 8 11 19 -10z m143 -7 c13
12 17 13 21 2 9 -23 -13 -37 -37 -24 -12 6 -23 9 -25 7 -2 -2 -6 7 -8 20 l-3
24 18 -23 c17 -21 19 -21 34 -6z m-7 16 c3 -5 1 -10 -4 -10 -6 0 -11 5 -11 10
0 6 2 10 4 10 3 0 8 -4 11 -10z m166 -20 c11 7 19 7 19 1 0 -5 -6 -12 -12 -14
-8 -3 -6 -6 5 -6 9 -1 17 5 18 12 0 9 2 9 6 0 3 -8 13 -3 29 15 15 17 22 20
18 10 -3 -10 -10 -18 -15 -18 -5 0 -9 -4 -9 -10 0 -5 8 -7 18 -4 15 5 14 4 -2
-10 -14 -11 -23 -13 -32 -5 -8 7 -14 7 -19 0 -4 -7 -15 -5 -33 7 -14 9 -28 15
-31 12 -2 -3 -6 6 -8 20 l-4 25 16 -23 c13 -18 20 -20 36 -12z m-6 20 c3 -5 1
-10 -4 -10 -6 0 -11 5 -11 10 0 6 2 10 4 10 3 0 8 -4 11 -10z m60 0 c-3 -5
-12 -10 -18 -10 -7 0 -6 4 3 10 19 12 23 12 15 0z m217 -20 c6 0 5 7 -3 17
-13 15 -12 15 9 2 12 -8 22 -16 22 -20 0 -3 7 -6 15 -6 18 0 20 14 3 19 -8 3
-7 6 3 10 18 7 22 -20 6 -40 -8 -10 -13 -9 -27 3 -15 14 -18 14 -23 1 -3 -8
-14 -13 -24 -11 -10 2 -20 4 -22 4 -3 1 0 6 6 12 6 6 9 19 6 28 -4 13 -2 13 7
-1 6 -10 16 -18 22 -18z m103 20 c-3 -5 -12 -10 -18 -10 -7 0 -6 4 3 10 19 12
23 12 15 0z m29 -5 c-4 -8 -10 -15 -15 -15 -5 0 -9 -4 -9 -10 0 -5 8 -7 18 -4
15 5 14 4 -2 -10 -20 -16 -47 -6 -45 18 0 7 3 6 6 -2 3 -8 11 -4 25 13 22 28
30 32 22 10z m398 -11 c13 12 17 13 21 2 9 -23 -13 -37 -37 -24 -12 6 -23 9
-25 7 -2 -2 -6 7 -8 20 l-3 24 18 -23 c17 -21 19 -21 34 -6z m-7 16 c3 -5 1
-10 -4 -10 -6 0 -11 5 -11 10 0 6 2 10 4 10 3 0 8 -4 11 -10z m160 0 c3 -5 1
-10 -4 -10 -6 0 -11 5 -11 10 0 6 2 10 4 10 3 0 8 -4 11 -10z m178 -13 c4 3 7
1 7 -5 0 -17 -20 -15 -26 2 -3 8 -13 12 -22 9 -15 -4 -15 -3 -2 6 11 8 18 7
26 -4 6 -8 14 -12 17 -8z m42 13 c-3 -5 -12 -10 -18 -10 -7 0 -6 4 3 10 19 12
23 12 15 0z m29 -5 c-4 -8 -10 -15 -15 -15 -5 0 -9 -4 -9 -10 0 -5 8 -7 18 -4
15 5 14 4 -2 -10 -20 -16 -47 -6 -45 18 0 7 3 6 6 -2 3 -8 11 -4 25 13 22 28
30 32 22 10z m169 -8 c4 3 7 1 7 -5 0 -17 -20 -15 -26 2 -3 8 -13 12 -22 9
-15 -4 -15 -3 -2 6 11 8 18 7 26 -4 6 -8 14 -12 17 -8z m42 13 c-3 -5 -12 -10
-18 -10 -7 0 -6 4 3 10 19 12 23 12 15 0z m29 -5 c-4 -8 -10 -15 -15 -15 -5 0
-9 -4 -9 -10 0 -5 8 -7 18 -4 15 5 14 4 -2 -10 -20 -16 -47 -6 -45 18 0 7 3 6
6 -2 3 -8 11 -4 25 13 22 28 30 32 22 10z m175 -4 c8 -14 7 -22 -7 -32 -15
-13 -16 -12 -4 3 9 11 10 18 2 23 -5 3 -10 10 -10 16 0 15 8 11 19 -10z m143
-7 c13 12 17 13 21 2 9 -23 -13 -37 -37 -24 -12 6 -23 9 -25 7 -2 -2 -6 7 -8
20 l-3 24 18 -23 c17 -21 19 -21 34 -6z m-7 16 c3 -5 1 -10 -4 -10 -6 0 -11 5
-11 10 0 6 2 10 4 10 3 0 8 -4 11 -10z m166 -20 c11 7 19 7 19 1 0 -5 -6 -12
-12 -14 -8 -3 -6 -6 5 -6 9 -1 17 5 18 12 0 9 2 9 6 0 3 -8 13 -3 29 15 15 17
22 20 18 10 -3 -10 -10 -18 -15 -18 -5 0 -9 -4 -9 -10 0 -5 8 -7 18 -4 15 5
14 4 -2 -10 -14 -11 -23 -13 -32 -5 -8 7 -14 7 -19 0 -4 -7 -15 -5 -33 7 -14
9 -28 15 -31 12 -2 -3 -6 6 -8 20 l-4 25 16 -23 c13 -18 20 -20 36 -12z m-6
20 c3 -5 1 -10 -4 -10 -6 0 -11 5 -11 10 0 6 2 10 4 10 3 0 8 -4 11 -10z m60
0 c-3 -5 -12 -10 -18 -10 -7 0 -6 4 3 10 19 12 23 12 15 0z m164 -31 c-5 -10
-17 -16 -26 -14 -19 3 -19 23 -1 40 8 7 9 5 5 -7 -3 -10 -1 -20 5 -24 7 -4 8
-3 4 4 -4 7 -3 12 3 12 6 0 8 8 5 18 -5 14 -4 14 4 3 7 -10 7 -21 1 -32z m53
11 c6 0 6 7 -3 18 -12 16 -12 16 5 0 17 -15 21 -15 45 -1 l26 16 -25 -25 c-14
-14 -28 -21 -31 -16 -3 5 -9 3 -12 -5 -3 -9 -14 -14 -24 -12 -10 2 -20 4 -22
4 -3 1 0 6 6 12 6 6 9 19 6 28 -4 13 -2 13 7 -1 6 -10 16 -18 22 -18z m-2981
6 c5 3 9 0 9 -6 0 -15 -23 -7 -26 8 -1 7 0 8 3 2 2 -5 9 -8 14 -4z m129 4 c0
-5 -5 -10 -11 -10 -5 0 -7 5 -4 10 3 6 8 10 11 10 2 0 4 -4 4 -10z m240 0 c0
-5 -5 -10 -11 -10 -5 0 -7 5 -4 10 3 6 8 10 11 10 2 0 4 -4 4 -10z m200 0 c0
-5 -6 -10 -12 -10 -9 0 -8 -4 2 -11 13 -9 12 -10 -2 -5 -10 3 -20 1 -23 -5 -7
-11 -25 -2 -25 13 0 5 7 7 15 4 9 -3 18 1 21 9 7 17 24 20 24 5z m160 0 c0 -5
-6 -10 -12 -10 -9 0 -8 -4 2 -11 13 -9 12 -10 -2 -5 -10 3 -20 1 -23 -5 -7
-11 -25 -2 -25 13 0 5 7 7 15 4 9 -3 18 1 21 9 7 17 24 20 24 5z m200 0 c0 -5
-5 -10 -11 -10 -5 0 -7 5 -4 10 3 6 8 10 11 10 2 0 4 -4 4 -10z m320 0 c0 -5
-5 -10 -11 -10 -5 0 -7 5 -4 10 3 6 8 10 11 10 2 0 4 -4 4 -10z m203 -5 c4 -8
1 -17 -5 -21 -7 -4 -8 -3 -4 4 9 16 -7 15 -22 0 -14 -14 -62 -19 -62 -7 0 14
18 19 23 7 3 -8 6 -5 6 5 1 13 6 17 20 12 11 -3 22 -1 26 5 8 14 12 13 18 -5z
m77 5 c0 -5 -6 -10 -12 -10 -9 0 -8 -4 2 -11 13 -9 12 -10 -2 -5 -10 3 -20 1
-23 -5 -7 -11 -25 -2 -25 13 0 5 7 7 15 4 9 -3 18 1 21 9 7 17 24 20 24 5z
m160 0 c0 -5 -6 -10 -12 -10 -9 0 -8 -4 2 -11 13 -9 12 -10 -2 -5 -10 3 -20 1
-23 -5 -7 -11 -25 -2 -25 13 0 5 7 7 15 4 9 -3 18 1 21 9 7 17 24 20 24 5z
m120 0 c0 -5 -5 -10 -11 -10 -5 0 -7 5 -4 10 3 6 8 10 11 10 2 0 4 -4 4 -10z
m240 0 c0 -5 -5 -10 -11 -10 -5 0 -7 5 -4 10 3 6 8 10 11 10 2 0 4 -4 4 -10z
m240 0 c0 -5 -5 -10 -11 -10 -5 0 -7 5 -4 10 3 6 8 10 11 10 2 0 4 -4 4 -10z
m200 0 c0 -5 -6 -10 -12 -10 -9 0 -8 -4 2 -11 13 -9 12 -10 -2 -5 -10 3 -20 1
-23 -5 -7 -11 -25 -2 -25 13 0 5 7 7 15 4 9 -3 18 1 21 9 7 17 24 20 24 5z
m160 0 c0 -5 -6 -10 -12 -10 -9 0 -8 -4 2 -11 13 -9 12 -10 -2 -5 -10 3 -20 1
-23 -5 -7 -11 -25 -2 -25 13 0 5 7 7 15 4 9 -3 18 1 21 9 7 17 24 20 24 5z
m200 0 c0 -5 -5 -10 -11 -10 -5 0 -7 5 -4 10 3 6 8 10 11 10 2 0 4 -4 4 -10z
m-1526 -28 c3 -5 -1 -9 -9 -9 -8 0 -12 4 -9 9 3 4 7 8 9 8 2 0 6 -4 9 -8z"/>
<path d="M2156 362 c-3 -5 1 -9 9 -9 8 0 12 4 9 9 -3 4 -7 8 -9 8 -2 0 -6 -4
-9 -8z"/>
<path d="M4076 362 c-3 -5 1 -9 9 -9 8 0 12 4 9 9 -3 4 -7 8 -9 8 -2 0 -6 -4
-9 -8z"/>
<path d="M1616 4737 c3 -10 9 -15 12 -12 3 3 0 11 -7 18 -10 9 -11 8 -5 -6z"/>
<path d="M1776 4737 c3 -10 9 -15 12 -12 3 3 0 11 -7 18 -10 9 -11 8 -5 -6z"/>
<path d="M2576 4737 c3 -10 9 -15 12 -12 3 3 0 11 -7 18 -10 9 -11 8 -5 -6z"/>
<path d="M2736 4737 c3 -10 9 -15 12 -12 3 3 0 11 -7 18 -10 9 -11 8 -5 -6z"/>
<path d="M3536 4737 c3 -10 9 -15 12 -12 3 3 0 11 -7 18 -10 9 -11 8 -5 -6z"/>
<path d="M3696 4737 c3 -10 9 -15 12 -12 3 3 0 11 -7 18 -10 9 -11 8 -5 -6z"/>
<path d="M913 4725 c0 -8 4 -12 9 -9 5 3 6 10 3 15 -9 13 -12 11 -12 -6z"/>
<path d="M1195 4730 c-3 -5 -1 -10 4 -10 6 0 11 5 11 10 0 6 -2 10 -4 10 -3 0
-8 -4 -11 -10z"/>
<path d="M1940 4736 c0 -2 7 -7 16 -10 8 -3 12 -2 9 4 -6 10 -25 14 -25 6z"/>
<path d="M2260 4736 c0 -2 7 -7 16 -10 8 -3 12 -2 9 4 -6 10 -25 14 -25 6z"/>
<path d="M3115 4730 c-3 -5 -1 -10 4 -10 6 0 11 5 11 10 0 6 -2 10 -4 10 -3 0
-8 -4 -11 -10z"/>
<path d="M3860 4736 c0 -2 7 -7 16 -10 8 -3 12 -2 9 4 -6 10 -25 14 -25 6z"/>
<path d="M587 4619 c7 -7 15 -10 18 -7 3 3 -2 9 -12 12 -14 6 -15 5 -6 -5z"/>
<path d="M574 4559 c0 -13 3 -15 13 -7 7 6 13 12 13 13 0 2 -6 5 -13 8 -7 3
-13 -3 -13 -14z"/>
<path d="M4576 4547 c3 -10 9 -15 12 -12 3 3 0 11 -7 18 -10 9 -11 8 -5 -6z"/>
<path d="M4600 4486 c0 -2 7 -7 16 -10 8 -3 12 -2 9 4 -6 10 -25 14 -25 6z"/>
<path d="M4656 4406 c7 -19 20 -21 30 -3 4 6 4 9 -1 5 -4 -4 -14 -3 -22 4 -11
8 -12 7 -7 -6z"/>
<path d="M4690 4380 c-9 -6 -10 -10 -3 -10 6 0 15 5 18 10 8 12 4 12 -15 0z"/>
<path d="M397 4373 c-10 -9 -9 -23 1 -23 5 0 9 7 9 15 0 17 -1 18 -10 8z"/>
<path d="M395 4329 c-4 -6 -5 -12 -2 -15 2 -3 7 2 10 11 7 17 1 20 -8 4z"/>
<path d="M4696 4315 c4 -8 8 -15 10 -15 2 0 4 7 4 15 0 8 -4 15 -10 15 -5 0
-7 -7 -4 -15z"/>
<path d="M398 4291 c19 -12 17 -24 -7 -33 -22 -8 -29 -28 -10 -28 5 0 8 4 5 9
-3 5 4 11 16 14 12 4 19 9 15 13 -4 4 -3 12 3 18 6 8 2 12 -13 13 -15 2 -18 0
-9 -6z"/>
<path d="M367 4279 c7 -7 15 -10 18 -7 3 3 -2 9 -12 12 -14 6 -15 5 -6 -5z"/>
<path d="M4710 4280 c0 -5 5 -10 10 -10 6 0 10 5 10 10 0 6 -4 10 -10 10 -5 0
-10 -4 -10 -10z"/>
<path d="M350 4200 c0 -5 5 -10 11 -10 5 0 7 5 4 10 -3 6 -8 10 -11 10 -2 0
-4 -4 -4 -10z"/>
<path d="M4750 4160 c0 -5 5 -10 11 -10 5 0 7 5 4 10 -3 6 -8 10 -11 10 -2 0
-4 -4 -4 -10z"/>
<path d="M365 4110 c-11 -5 -17 -9 -13 -9 3 -1 13 -3 21 -6 8 -4 14 0 14 10 0
8 -1 15 -1 14 -1 0 -10 -4 -21 -9z"/>
<path d="M4750 4100 c0 -5 5 -10 11 -10 5 0 7 5 4 10 -3 6 -8 10 -11 10 -2 0
-4 -4 -4 -10z"/>
<path d="M336 4078 c3 -5 11 -7 17 -5 7 2 21 0 32 -6 15 -7 17 -7 9 3 -13 14
-66 21 -58 8z"/>
<path d="M4730 4086 c0 -3 9 -10 20 -16 11 -6 20 -8 20 -6 0 3 -9 10 -20 16
-11 6 -20 8 -20 6z"/>
<path d="M4737 4049 c7 -7 15 -10 18 -7 3 3 -2 9 -12 12 -14 6 -15 5 -6 -5z"/>
<path d="M353 3994 c0 -7 4 -11 9 -8 4 3 8 0 8 -5 0 -6 -6 -11 -14 -11 -17 0
-29 -27 -15 -35 5 -4 8 -1 7 7 -2 7 3 12 10 11 6 -2 12 2 12 8 0 5 4 8 8 5 5
-3 9 1 9 8 0 7 -8 18 -17 24 -12 7 -17 7 -17 -4z"/>
<path d="M4745 3982 c-14 -10 -17 -32 -5 -32 6 0 10 6 10 14 0 8 6 17 13 19 6
3 8 6 2 6 -5 0 -14 -3 -20 -7z"/>
<path d="M350 3922 c-11 -13 -11 -14 1 -10 8 3 22 1 32 -4 22 -11 22 -7 -1 13
-16 14 -20 14 -32 1z"/>
<path d="M4765 3919 c-4 -6 -13 -8 -20 -5 -10 3 -12 -3 -9 -22 3 -15 8 -29 11
-32 3 -3 3 4 1 15 -2 11 5 27 17 37 11 10 17 17 13 18 -4 0 -10 -5 -13 -11z"/>
<path d="M330 3841 c0 -5 11 -8 25 -8 30 0 28 6 -4 12 -11 2 -21 0 -21 -4z"/>
<path d="M4745 3822 c-14 -10 -17 -32 -5 -32 6 0 10 6 10 14 0 8 6 17 13 19 6
3 8 6 2 6 -5 0 -14 -3 -20 -7z"/>
<path d="M338 3752 c4 -10 7 -12 10 -4 2 7 9 9 15 5 7 -3 8 -2 4 2 -14 16 -36
14 -29 -3z"/>
<path d="M4739 3758 c-6 -21 -5 -37 2 -32 5 3 9 0 9 -5 0 -6 5 -11 12 -11 6 0
8 3 5 7 -4 3 -1 13 6 22 11 14 10 14 -5 2 -16 -12 -22 -9 -19 12 1 6 -8 11
-10 5z"/>
<path d="M362 3733 c-10 -4 -10 -8 0 -21 10 -12 10 -16 1 -19 -7 -3 -13 -10
-13 -15 0 -6 3 -8 7 -5 3 4 12 2 18 -3 9 -8 12 -4 11 12 0 13 -5 26 -11 31 -6
4 -4 11 5 17 16 10 4 12 -18 3z"/>
<path d="M4733 3693 c1 -12 3 -20 6 -18 2 3 14 -3 25 -12 15 -14 18 -14 8 -2
-6 9 -10 19 -7 22 3 4 2 5 -2 2 -3 -3 -12 3 -19 13 -12 16 -13 15 -11 -5z"/>
<path d="M4737 3649 c7 -7 15 -10 18 -7 3 3 -2 9 -12 12 -14 6 -15 5 -6 -5z"/>
<path d="M339 3618 c-5 -19 -8 -50 -4 -46 7 7 15 48 9 48 -2 0 -4 -1 -5 -2z"/>
<path d="M4745 3582 c-14 -10 -17 -32 -5 -32 6 0 10 6 10 14 0 8 6 17 13 19 6
3 8 6 2 6 -5 0 -14 -3 -20 -7z"/>
<path d="M4739 3518 c-6 -21 -5 -37 2 -32 5 3 9 0 9 -5 0 -6 5 -11 12 -11 6 0
8 3 5 7 -4 3 -1 13 6 22 11 14 10 14 -5 2 -16 -12 -22 -9 -19 12 1 6 -8 11
-10 5z"/>
<path d="M4733 3453 c1 -12 3 -20 6 -18 2 3 14 -3 25 -12 15 -14 18 -14 8 -2
-6 9 -10 19 -7 22 3 4 2 5 -2 2 -3 -3 -12 3 -19 13 -12 16 -13 15 -11 -5z"/>
<path d="M4737 3409 c7 -7 15 -10 18 -7 3 3 -2 9 -12 12 -14 6 -15 5 -6 -5z"/>
<path d="M351 3395 c-1 -5 7 -20 17 -33 17 -21 18 -22 18 -3 0 11 -4 18 -8 15
-4 -2 -11 4 -17 13 -6 10 -10 14 -10 8z"/>
<path d="M4745 3342 c-14 -10 -17 -32 -5 -32 6 0 10 6 10 14 0 8 6 17 13 19 6
3 8 6 2 6 -5 0 -14 -3 -20 -7z"/>
<path d="M339 3298 c-5 -19 -8 -50 -4 -46 7 7 15 48 9 48 -2 0 -4 -1 -5 -2z"/>
<path d="M4765 3279 c-4 -6 -13 -8 -20 -5 -10 3 -12 -3 -9 -22 3 -15 8 -29 11
-32 3 -3 3 4 1 15 -2 11 5 27 17 37 11 10 17 17 13 18 -4 0 -10 -5 -13 -11z"/>
<path d="M4745 3182 c-14 -10 -17 -32 -5 -32 6 0 10 6 10 14 0 8 6 17 13 19 6
3 8 6 2 6 -5 0 -14 -3 -20 -7z"/>
<path d="M350 3122 c-11 -13 -11 -14 1 -10 8 3 22 1 32 -4 22 -11 22 -7 -1 13
-16 14 -20 14 -32 1z"/>
<path d="M4739 3118 c-6 -21 -5 -37 2 -32 5 3 9 0 9 -5 0 -6 5 -11 12 -11 6 0
8 3 5 7 -4 3 -1 13 6 22 11 14 10 14 -5 2 -16 -12 -22 -9 -19 12 1 6 -8 11
-10 5z"/>
<path d="M4733 3053 c1 -12 3 -20 6 -18 2 3 14 -3 25 -12 15 -14 18 -14 8 -2
-6 9 -10 19 -7 22 3 4 2 5 -2 2 -3 -3 -12 3 -19 13 -12 16 -13 15 -11 -5z"/>
<path d="M353 3034 c0 -7 4 -11 9 -8 4 3 8 0 8 -5 0 -6 -6 -11 -14 -11 -17 0
-29 -27 -15 -35 5 -4 8 -1 7 7 -2 7 3 12 10 11 6 -2 12 2 12 8 0 5 4 8 8 5 5
-3 9 1 9 8 0 7 -8 18 -17 24 -12 7 -17 7 -17 -4z"/>
<path d="M4737 3009 c7 -7 15 -10 18 -7 3 3 -2 9 -12 12 -14 6 -15 5 -6 -5z"/>
<path d="M350 2962 c-11 -13 -11 -14 1 -10 8 3 22 1 32 -4 22 -11 22 -7 -1 13
-16 14 -20 14 -32 1z"/>
<path d="M4745 2942 c-14 -10 -17 -32 -5 -32 6 0 10 6 10 14 0 8 6 17 13 19 6
3 8 6 2 6 -5 0 -14 -3 -20 -7z"/>
<path d="M4739 2878 c-6 -21 -5 -37 2 -32 5 3 9 0 9 -5 0 -6 5 -11 12 -11 6 0
8 3 5 7 -4 3 -1 13 6 22 11 14 10 14 -5 2 -16 -12 -22 -9 -19 12 1 6 -8 11
-10 5z"/>
<path d="M4733 2813 c1 -12 3 -20 6 -18 2 3 14 -3 25 -12 15 -14 18 -14 8 -2
-6 9 -10 19 -7 22 3 4 2 5 -2 2 -3 -3 -12 3 -19 13 -12 16 -13 15 -11 -5z"/>
<path d="M379 2813 c-1 -4 -1 -11 0 -15 0 -5 -8 -8 -18 -8 -32 0 -32 -15 0
-16 16 -1 27 1 24 4 -3 3 0 11 6 18 7 8 7 14 -1 19 -5 3 -11 3 -11 -2z"/>
<path d="M4737 2769 c7 -7 15 -10 18 -7 3 3 -2 9 -12 12 -14 6 -15 5 -6 -5z"/>
<path d="M4745 2702 c-14 -10 -17 -32 -5 -32 6 0 10 6 10 14 0 8 6 17 13 19 6
3 8 6 2 6 -5 0 -14 -3 -20 -7z"/>
<path d="M4765 2639 c-4 -6 -13 -8 -20 -5 -10 3 -12 -3 -9 -22 3 -15 8 -29 11
-32 3 -3 3 4 1 15 -2 11 5 27 17 37 11 10 17 17 13 18 -4 0 -10 -5 -13 -11z"/>
<path d="M320 2620 c-9 -6 -10 -10 -3 -10 6 0 15 5 18 10 8 12 4 12 -15 0z"/>
<path d="M376 2614 c-8 -20 0 -32 14 -18 5 5 5 15 1 22 -6 11 -10 10 -15 -4z"/>
<path d="M347 2586 c-4 -9 -2 -15 3 -13 5 1 15 -6 22 -16 13 -18 14 -17 14 2
0 11 -4 18 -8 15 -4 -2 -11 3 -16 12 -8 15 -10 15 -15 0z"/>
<path d="M4745 2542 c-14 -10 -17 -32 -5 -32 6 0 10 6 10 14 0 8 6 17 13 19 6
3 8 6 2 6 -5 0 -14 -3 -20 -7z"/>
<path d="M339 2498 c-5 -19 -8 -50 -4 -46 7 7 15 48 9 48 -2 0 -4 -1 -5 -2z"/>
<path d="M4739 2478 c-6 -21 -5 -37 2 -32 5 3 9 0 9 -5 0 -6 5 -11 12 -11 6 0
8 3 5 7 -4 3 -1 13 6 22 11 14 10 14 -5 2 -16 -12 -22 -9 -19 12 1 6 -8 11
-10 5z"/>
<path d="M4733 2413 c1 -12 3 -20 6 -18 2 3 14 -3 25 -12 15 -14 18 -14 8 -2
-6 9 -10 19 -7 22 3 4 2 5 -2 2 -3 -3 -12 3 -19 13 -12 16 -13 15 -11 -5z"/>
<path d="M336 2365 c-3 -8 -1 -15 4 -15 6 0 10 7 10 15 0 8 -2 15 -4 15 -2 0
-6 -7 -10 -15z"/>
<path d="M4737 2369 c7 -7 15 -10 18 -7 3 3 -2 9 -12 12 -14 6 -15 5 -6 -5z"/>
<path d="M4745 2302 c-14 -10 -17 -32 -5 -32 6 0 10 6 10 14 0 8 6 17 13 19 6
3 8 6 2 6 -5 0 -14 -3 -20 -7z"/>
<path d="M370 2270 c0 -6 -4 -9 -8 -6 -4 2 -8 -6 -8 -19 0 -13 4 -21 8 -19 4
3 8 0 8 -5 0 -6 -6 -11 -14 -11 -17 0 -29 -27 -15 -35 5 -4 8 -1 7 7 -2 7 3
12 10 11 6 -2 12 2 12 8 0 5 4 8 8 5 5 -3 9 1 9 9 0 8 -7 17 -16 20 -14 6 -14
8 2 20 12 8 14 15 8 20 -6 3 -11 1 -11 -5z"/>
<path d="M4739 2238 c-6 -21 -5 -37 2 -32 5 3 9 0 9 -5 0 -6 5 -11 12 -11 6 0
8 3 5 7 -4 3 -1 13 6 22 11 14 10 14 -5 2 -16 -12 -22 -9 -19 12 1 6 -8 11
-10 5z"/>
<path d="M4733 2173 c1 -12 3 -20 6 -18 2 3 14 -3 25 -12 15 -14 18 -14 8 -2
-6 9 -10 19 -7 22 3 4 2 5 -2 2 -3 -3 -12 3 -19 13 -12 16 -13 15 -11 -5z"/>
<path d="M350 2162 c-11 -13 -11 -14 1 -10 8 3 22 1 32 -4 22 -11 22 -7 -1 13
-16 14 -20 14 -32 1z"/>
<path d="M4737 2129 c7 -7 15 -10 18 -7 3 3 -2 9 -12 12 -14 6 -15 5 -6 -5z"/>
<path d="M353 2074 c0 -7 4 -11 9 -8 4 3 8 0 8 -5 0 -6 -6 -11 -14 -11 -17 0
-29 -27 -15 -35 5 -4 8 -1 7 7 -2 7 3 12 10 11 6 -2 12 2 12 8 0 5 4 8 8 5 5
-3 9 1 9 8 0 7 -8 18 -17 24 -12 7 -17 7 -17 -4z"/>
<path d="M4745 2062 c-14 -10 -17 -32 -5 -32 6 0 10 6 10 14 0 8 6 17 13 19 6
3 8 6 2 6 -5 0 -14 -3 -20 -7z"/>
<path d="M350 2002 c-11 -13 -11 -14 1 -10 8 3 22 1 32 -4 22 -11 22 -7 -1 13
-16 14 -20 14 -32 1z"/>
<path d="M4765 1999 c-4 -6 -13 -8 -20 -5 -10 3 -12 -3 -9 -22 3 -15 8 -29 11
-32 3 -3 3 4 1 15 -2 11 5 27 17 37 11 10 17 17 13 18 -4 0 -10 -5 -13 -11z"/>
<path d="M330 1921 c0 -5 11 -8 25 -8 30 0 28 6 -4 12 -11 2 -21 0 -21 -4z"/>
<path d="M4745 1902 c-14 -10 -17 -32 -5 -32 6 0 10 6 10 14 0 8 6 17 13 19 6
3 8 6 2 6 -5 0 -14 -3 -20 -7z"/>
<path d="M338 1832 c4 -10 7 -12 10 -4 2 7 9 9 15 5 7 -3 8 -2 4 2 -14 16 -36
14 -29 -3z"/>
<path d="M4739 1838 c-6 -21 -5 -37 2 -32 5 3 9 0 9 -5 0 -6 5 -11 12 -11 6 0
8 3 5 7 -4 3 -1 13 6 22 11 14 10 14 -5 2 -16 -12 -22 -9 -19 12 1 6 -8 11
-10 5z"/>
<path d="M362 1813 c-10 -4 -10 -8 0 -21 10 -12 10 -16 1 -19 -7 -3 -13 -10
-13 -15 0 -6 3 -8 7 -5 3 4 12 2 18 -3 9 -8 12 -4 11 12 0 13 -5 26 -11 31 -6
4 -4 11 5 17 16 10 4 12 -18 3z"/>
<path d="M4733 1773 c1 -12 3 -20 6 -18 2 3 14 -3 25 -12 15 -14 18 -14 8 -2
-6 9 -10 19 -7 22 3 4 2 5 -2 2 -3 -3 -12 3 -19 13 -12 16 -13 15 -11 -5z"/>
<path d="M4737 1729 c7 -7 15 -10 18 -7 3 3 -2 9 -12 12 -14 6 -15 5 -6 -5z"/>
<path d="M339 1698 c-5 -19 -8 -50 -4 -46 7 7 15 48 9 48 -2 0 -4 -1 -5 -2z"/>
<path d="M4745 1662 c-14 -10 -17 -32 -5 -32 6 0 10 6 10 14 0 8 6 17 13 19 6
3 8 6 2 6 -5 0 -14 -3 -20 -7z"/>
<path d="M4739 1598 c-6 -21 -5 -37 2 -32 5 3 9 0 9 -5 0 -6 5 -11 12 -11 6 0
8 3 5 7 -4 3 -1 13 6 22 11 14 10 14 -5 2 -16 -12 -22 -9 -19 12 1 6 -8 11
-10 5z"/>
<path d="M4733 1533 c1 -12 3 -20 6 -18 2 3 14 -3 25 -12 15 -14 18 -14 8 -2
-6 9 -10 19 -7 22 3 4 2 5 -2 2 -3 -3 -12 3 -19 13 -12 16 -13 15 -11 -5z"/>
<path d="M4737 1489 c7 -7 15 -10 18 -7 3 3 -2 9 -12 12 -14 6 -15 5 -6 -5z"/>
<path d="M351 1475 c-1 -5 7 -20 17 -33 17 -21 18 -22 18 -3 0 11 -4 18 -8 15
-4 -2 -11 4 -17 13 -6 10 -10 14 -10 8z"/>
<path d="M4745 1422 c-14 -10 -17 -32 -5 -32 6 0 10 6 10 14 0 8 6 17 13 19 6
3 8 6 2 6 -5 0 -14 -3 -20 -7z"/>
<path d="M339 1378 c-5 -19 -8 -50 -4 -46 7 7 15 48 9 48 -2 0 -4 -1 -5 -2z"/>
<path d="M4765 1359 c-4 -6 -13 -8 -20 -5 -10 3 -12 -3 -9 -22 3 -15 8 -29 11
-32 3 -3 3 4 1 15 -2 11 5 27 17 37 11 10 17 17 13 18 -4 0 -10 -5 -13 -11z"/>
<path d="M4745 1262 c-14 -10 -17 -32 -5 -32 6 0 10 6 10 14 0 8 6 17 13 19 6
3 8 6 2 6 -5 0 -14 -3 -20 -7z"/>
<path d="M350 1202 c-11 -13 -11 -14 1 -10 8 3 22 1 32 -4 22 -11 22 -7 -1 13
-16 14 -20 14 -32 1z"/>
<path d="M4739 1163 c-13 -16 -12 -17 4 -4 16 13 21 21 13 21 -2 0 -10 -8 -17
-17z"/>
<path d="M4753 1148 c-18 -24 -23 -47 -8 -42 8 3 11 13 8 21 -4 10 -2 14 4 10
5 -3 10 0 10 8 0 18 -2 18 -14 3z"/>
<path d="M315 1081 c-3 -5 -2 -12 3 -15 5 -3 9 1 9 9 0 17 -3 19 -12 6z"/>
<path d="M335 1020 c3 -5 8 -10 11 -10 2 0 4 5 4 10 0 6 -5 10 -11 10 -5 0 -7
-4 -4 -10z"/>
<path d="M4745 1022 c-14 -10 -17 -32 -5 -32 6 0 10 6 10 14 0 8 6 17 13 19 6
3 8 6 2 6 -5 0 -14 -3 -20 -7z"/>
<path d="M4748 979 c-22 -13 -23 -25 -2 -33 14 -5 15 -4 4 9 -12 15 -4 21 23
16 5 -1 6 3 2 9 -7 12 -6 12 -27 -1z"/>
<path d="M4770 941 c0 -6 4 -13 10 -16 6 -3 7 1 4 9 -7 18 -14 21 -14 7z"/>
<path d="M4736 925 c4 -8 0 -22 -7 -31 -10 -12 -9 -18 4 -32 11 -10 17 -12 17
-4 0 7 -4 12 -10 12 -5 0 -10 5 -10 11 0 5 4 8 8 5 4 -2 9 6 10 19 1 13 -3 27
-8 30 -6 3 -7 -1 -4 -10z"/>
<path d="M346 858 c3 -4 11 -5 19 -1 21 7 19 12 -4 10 -11 0 -18 -5 -15 -9z"/>
<path d="M4712 804 c10 -10 20 -15 24 -12 3 4 -5 12 -18 18 -22 12 -22 12 -6
-6z"/>
<path d="M355 781 c-3 -5 -2 -12 3 -15 5 -3 9 1 9 9 0 17 -3 19 -12 6z"/>
<path d="M410 680 c0 -5 5 -10 11 -10 5 0 7 5 4 10 -3 6 -8 10 -11 10 -2 0 -4
-4 -4 -10z"/>
<path d="M436 663 c-6 -14 -5 -15 5 -6 7 7 10 15 7 18 -3 3 -9 -2 -12 -12z"/>
<path d="M4591 597 c-6 -8 -7 -18 -3 -22 4 -5 -1 -5 -10 -2 -22 8 -45 -18 -23
-27 8 -3 15 -1 15 4 0 6 5 10 11 10 6 0 8 -7 5 -16 -3 -9 -2 -12 5 -9 6 4 8
13 5 21 -6 14 9 20 17 7 2 -5 2 -1 -1 7 -2 8 -5 21 -5 28 0 15 -2 15 -16 -1z"/>
<path d="M520 523 c8 -3 19 -11 23 -17 6 -7 7 -6 4 4 -2 8 -12 16 -23 17 -13
2 -15 1 -4 -4z"/>
<path d="M4509 513 c-11 -13 -11 -15 -1 -9 9 6 12 3 10 -9 -3 -19 28 -30 38
-14 3 5 0 8 -8 7 -7 -2 -13 5 -13 14 0 26 -11 30 -26 11z"/>
<path d="M590 498 c0 -6 6 -8 14 -5 7 3 19 0 25 -6 6 -6 11 -7 11 -3 0 5 7 3
15 -4 9 -7 15 -8 15 -2 0 5 -8 13 -17 17 -30 12 -63 14 -63 3z"/>
<path d="M593 465 c0 -8 4 -15 9 -15 4 0 8 4 8 9 0 6 -4 12 -8 15 -5 3 -9 -1
-9 -9z"/>
<path d="M695 440 c-4 -6 -10 -8 -15 -5 -5 3 -7 -4 -5 -16 5 -27 11 -33 20
-20 3 6 1 11 -5 11 -6 0 -8 5 -5 10 10 15 37 -9 31 -27 -4 -11 -1 -11 15 -2
l21 11 -23 24 c-26 27 -26 27 -34 14z m30 -20 c10 -11 16 -20 13 -20 -3 0 -13
9 -23 20 -10 11 -16 20 -13 20 3 0 13 -9 23 -20z"/>
<path d="M4495 440 c3 -5 8 -10 11 -10 2 0 4 5 4 10 0 6 -5 10 -11 10 -5 0 -7
-4 -4 -10z"/>
<path d="M4342 403 c-9 -16 -9 -24 0 -29 6 -4 8 -3 4 4 -3 5 -1 12 5 14 7 2
10 11 7 18 -3 11 -8 10 -16 -7z"/>
<path d="M4307 395 c-4 -8 -2 -17 4 -20 5 -4 7 -11 4 -16 -4 -5 -1 -9 4 -9 14
0 14 13 -1 28 -9 9 -9 12 0 12 7 0 12 5 12 10 0 15 -17 12 -23 -5z"/>
<path d="M4433 393 c0 -9 4 -10 14 -2 7 6 13 12 13 14 0 1 -6 2 -13 2 -8 0
-14 -6 -14 -14z"/>
<path d="M821 381 c-8 -5 -9 -11 -3 -15 5 -3 12 1 16 9 6 17 6 18 -13 6z"/>
<path d="M922 361 c8 -14 21 -27 29 -29 11 -3 11 -1 -1 7 -13 10 -8 15 13 12
11 -2 9 17 -3 24 -6 3 -13 -1 -16 -10 -6 -14 -8 -14 -21 2 -14 16 -14 15 -1
-6z"/>
<path d="M980 359 c0 -5 5 -7 10 -4 6 3 10 8 10 11 0 2 -4 4 -10 4 -5 0 -10
-5 -10 -11z"/>
<path d="M2875 360 c-3 -5 -1 -10 4 -10 6 0 11 5 11 10 0 6 -2 10 -4 10 -3 0
-8 -4 -11 -10z"/>
<path d="M901 337 c2 -1 13 -9 24 -17 19 -14 19 -14 6 3 -7 9 -18 17 -24 17
-6 0 -8 -1 -6 -3z"/>
<path d="M1260 331 c0 -6 4 -13 10 -16 6 -3 7 1 4 9 -7 18 -14 21 -14 7z"/>
<path d="M1501 324 c0 -11 3 -14 6 -6 3 7 2 16 -1 19 -3 4 -6 -2 -5 -13z"/>
<path d="M2376 323 c-6 -14 -5 -15 5 -6 7 7 10 15 7 18 -3 3 -9 -2 -12 -12z"/>
<path d="M2941 324 c0 -11 3 -14 6 -6 3 7 2 16 -1 19 -3 4 -6 -2 -5 -13z"/>
<path d="M3181 324 c0 -11 3 -14 6 -6 3 7 2 16 -1 19 -3 4 -6 -2 -5 -13z"/>
<path d="M3421 324 c0 -11 3 -14 6 -6 3 7 2 16 -1 19 -3 4 -6 -2 -5 -13z"/>
<path d="M1615 320 c3 -5 8 -10 11 -10 2 0 4 5 4 10 0 6 -5 10 -11 10 -5 0 -7
-4 -4 -10z"/>
<path d="M1775 320 c3 -5 8 -10 11 -10 2 0 4 5 4 10 0 6 -5 10 -11 10 -5 0 -7
-4 -4 -10z"/>
<path d="M2193 315 c0 -8 4 -12 9 -9 4 3 8 9 8 15 0 5 -4 9 -8 9 -5 0 -9 -7
-9 -15z"/>
<path d="M2575 320 c3 -5 8 -10 11 -10 2 0 4 5 4 10 0 6 -5 10 -11 10 -5 0 -7
-4 -4 -10z"/>
<path d="M2735 320 c3 -5 8 -10 11 -10 2 0 4 5 4 10 0 6 -5 10 -11 10 -5 0 -7
-4 -4 -10z"/>
<path d="M3535 320 c3 -5 8 -10 11 -10 2 0 4 5 4 10 0 6 -5 10 -11 10 -5 0 -7
-4 -4 -10z"/>
<path d="M3695 320 c3 -5 8 -10 11 -10 2 0 4 5 4 10 0 6 -5 10 -11 10 -5 0 -7
-4 -4 -10z"/>
<path d="M1093 305 c0 -8 4 -12 9 -9 5 3 6 10 3 15 -9 13 -12 11 -12 -6z"/>
<path d="M4236 298 c3 -5 10 -6 15 -3 13 9 11 12 -6 12 -8 0 -12 -4 -9 -9z"/>
</g>
</svg>
